<?xml version="1.0" encoding="UTF-8" standalone="no"?>
<svg
   xmlns:dc="http://purl.org/dc/elements/1.1/"
   xmlns:cc="http://creativecommons.org/ns#"
   xmlns:rdf="http://www.w3.org/1999/02/22-rdf-syntax-ns#"
   xmlns:svg="http://www.w3.org/2000/svg"
   xmlns="http://www.w3.org/2000/svg"
   id="svg66"
   version="1.1"
   style="overflow:visible"
   viewBox="-240 -195 480 391"
   height="1564px"
   width="1920px">
  <metadata
     id="metadata72">
    <rdf:RDF>
      <cc:Work
         rdf:about="">
        <dc:format>image/svg+xml</dc:format>
        <dc:type
           rdf:resource="http://purl.org/dc/dcmitype/StillImage" />
      </cc:Work>
    </rdf:RDF>
  </metadata>
  <defs
     id="defs70" />
  <rect
     id="rect2"
     fill-opacity="0"
     fill="rgb(0,0,0)"
     height="391"
     width="480"
     y="-195"
     x="-240" />
  <svg
     id="svg64"
     version="1.1"
     y="-250"
     x="-250"
     viewBox="-250 -250 500 500"
     height="500"
     width="500"
     style="overflow:visible">
    <g
       style="fill:#ffffff;stroke-linejoin:round"
       id="g62">
      <path
         style="fill:#c5ac96;fill-opacity:1;stroke:#383838;stroke-width:6;stroke-linecap:butt;stroke-linejoin:round;stroke-opacity:1"
         id="path4"
         d="m -13.020001,140.452 h 26.0404 v 25.7732 h -26.0404 z" />
      <path
         style="fill:#ffffff;fill-opacity:1;stroke:#383838;stroke-width:6;stroke-linecap:butt;stroke-linejoin:round;stroke-opacity:1"
         id="path6"
         d="m -13.020001,114.679 v 25.7732" />
      <path
         style="fill:#ffffff;fill-opacity:1;stroke:#383838;stroke-width:6;stroke-linecap:butt;stroke-linejoin:round;stroke-opacity:1"
         id="path8"
         d="m 13.021,114.679 10e-6,25.7732" />
      <path
         style="fill:#a7a7a7;fill-opacity:1;stroke:#383838;stroke-width:6;stroke-linecap:butt;stroke-linejoin:round;stroke-opacity:1"
         id="path10"
         d="m -30.828001,83.822999 c 7.81953,9.51959 14.7067,21.227501 17.8083,30.856601 h 26.0404 c 3.10165,-9.62906 9.98879,-21.337001 17.8083,-30.856601 l -30.1794,-12.5273 z" />
      <path
         style="fill:#fff256;fill-opacity:1;stroke:none;stroke-linecap:butt;stroke-linejoin:round"
         id="path12"
         d="m 30.286,-162.1314 c 24.699,0 56.2179,18.6032 73.3834,50.5296 L 66.37,-96.677 29.0287,-111.6018 Z" />
      <path
         style="fill:#fff8a4;fill-opacity:1;stroke:none;stroke-linecap:butt;stroke-linejoin:round"
         id="path14"
         d="m 103.67,-111.602 c 8.96432,16.672999 14.0146,36.9774 12.1332,60.1665 -0.21479,2.64726 -0.56694,5.30393 -1.03167,7.96485 l -47.044201,16.733799 -40.3949,-16.7338 1.69695,-68.131399 z" />
      <path
         style="fill:#fff256;fill-opacity:1;stroke:none;stroke-linecap:butt;stroke-linejoin:round"
         id="path16"
         d="M 114.771,-43.47 C 110.72014,-20.2763 97.5626,3.2845 81.992899,24.6614 l -34.1639,12.6634 -22.1922,-12.6634 1.69503,-68.1314 z" />
      <path
         style="fill:#fff8a4;fill-opacity:1;stroke:none;stroke-linecap:butt;stroke-linejoin:round"
         id="path18"
         d="M 81.993,24.661 C 64.8792,48.1579 44.8592,69.0146 30.8281,83.8227 H 24.16372 L 25.63698,24.661 Z" />
      <path
         style="fill:none;stroke:#383838;stroke-width:6;stroke-linecap:butt;stroke-linejoin:round;stroke-opacity:1"
         id="path20"
         d="m 30.286,-162.1321 c 37.5976,0 91.001,43.1042 85.5169,110.697 C 111.6582,-0.35 59.0881,53.9959 30.8273,83.8219 h -6.66445 z" />
      <path
         style="fill:#ff5656;fill-opacity:1;stroke:none;stroke-linecap:butt;stroke-linejoin:round"
         id="path22"
         d="m -30.286,-162.1314 c -24.699,0 -56.2179,18.6032 -73.3834,50.5296 l 37.2994,14.9248 37.3413,-14.9248 z" />
      <path
         style="fill:#ff9292;fill-opacity:1;stroke:none;stroke-linecap:butt;stroke-linejoin:round"
         id="path24"
         d="m -103.67,-111.602 c -8.96431,16.672999 -14.0146,36.9774 -12.1332,60.1665 0.21477,2.64726 0.56693,5.30393 1.03166,7.96485 l 47.0442,16.733799 40.3949,-16.7338 -1.69694,-68.131399 z" />
      <path
         style="fill:#ff5656;fill-opacity:1;stroke:none;stroke-linecap:butt;stroke-linejoin:round"
         id="path26"
         d="m -114.771,-43.47 c 4.05085,23.1937 17.2084,46.7545 32.7781,68.1314 l 34.1638,12.6634 22.1922,-12.6634 -1.69502,-68.1314 z" />
      <path
         style="fill:#ff9292;fill-opacity:1;stroke:none;stroke-linecap:butt;stroke-linejoin:round"
         id="path28"
         d="m -81.993,24.661 c 17.1138,23.4969 37.1338,44.3536 51.1649,59.1617 h 6.66438 L -25.637,24.661 Z" />
      <path
         style="fill:none;stroke:#383838;stroke-width:6;stroke-linecap:butt;stroke-linejoin:round;stroke-opacity:1"
         id="path30"
         d="m -30.286,-162.1321 c -37.5976,0 -91.001,43.1042 -85.5169,110.697 4.14469,51.0851 56.7148,105.431 84.9756,135.257 h 6.66444 z" />
      <path
         style="fill:#7aff56;fill-opacity:1;stroke:none;stroke-linecap:butt;stroke-linejoin:round"
         id="path32"
         d="m 9.021999,-165.4331 c 29.0931,0 55.955,19.6575 68.9694,53.8313 l -38.1126,17.6254 -31.0187,-17.6254 z" />
      <path
         style="fill:#aaff93;fill-opacity:1;stroke:none;stroke-linecap:butt;stroke-linejoin:round"
         id="path34"
         d="m 77.992,-111.602 c 5.7986,15.2262 8.85086,33.331 8.12222,53.8679 -0.16651,4.69319 -0.63434,9.45642 -1.36528,14.2635 l -40.5372,16.733799 -35.5555,-16.7338 0.20441,-68.131399 z" />
      <path
         style="fill:#7aff56;fill-opacity:1;stroke:none;stroke-linecap:butt;stroke-linejoin:round"
         id="path36"
         d="M 84.749,-43.47 C 81.30168,-20.7984 71.9935,2.8397 60.8047,24.6614 L 31.0974,35.968 8.4519,24.6614 8.6563,-43.47 Z" />
      <path
         style="fill:#aaff93;fill-opacity:1;stroke:none;stroke-linecap:butt;stroke-linejoin:round"
         id="path38"
         d="m 60.803999,24.661 c -11.6663,22.7529 -25.3773,43.5309 -36.6406,59.1617 H 8.273799 L 8.451209,24.661 Z" />
      <path
         style="fill:none;stroke:#383838;stroke-width:6;stroke-linecap:butt;stroke-linejoin:round;stroke-opacity:1"
         id="path40"
         d="m 9.023,-165.4336 c 42.0556,0 79.4556,41.0697 77.0915,107.7 -1.77064,49.907 -37.5951,107.755 -61.951,141.556 l -15.8889,6.9e-4 z" />
      <path
         style="fill:#8756ff;fill-opacity:1;stroke:none;stroke-linecap:butt;stroke-linejoin:round"
         id="path42"
         d="m -9.022,-165.4331 c -29.0931,0 -55.955,19.6575 -68.9694,53.8313 l 38.1126,17.6254 31.0187,-17.6254 z" />
      <path
         style="fill:#a985ff;fill-opacity:1;stroke:none;stroke-linecap:butt;stroke-linejoin:round"
         id="path44"
         d="m -77.992,-111.602 c -5.79861,15.2262 -8.85086,33.331 -8.12222,53.8679 0.16651,4.69319 0.63434,9.45642 1.36528,14.2635 l 40.5372,16.733799 35.5555,-16.7338 -0.20441,-68.131399 z" />
      <path
         style="fill:#8756ff;fill-opacity:1;stroke:none;stroke-linecap:butt;stroke-linejoin:round"
         id="path46"
         d="m -84.749,-43.47 c 3.44732,22.6716 12.7555,46.3097 23.9443,68.1314 L -31.0974,35.968 -8.452,24.6614 -8.65639,-43.47 Z" />
      <path
         style="fill:#a985ff;fill-opacity:1;stroke:none;stroke-linecap:butt;stroke-linejoin:round"
         id="path48"
         d="m -60.804,24.661 c 11.6663,22.7529 25.3773,43.5309 36.6406,59.1617 H -8.2738 L -8.45122,24.661 Z" />
      <path
         style="fill:none;stroke:#383838;stroke-width:6;stroke-linecap:butt;stroke-linejoin:round;stroke-opacity:1"
         id="path50"
         d="m -9.023,-165.4336 c -42.0556,0 -79.4556,41.0697 -77.0915,107.7 1.77064,49.907 37.5951,107.755 61.951,141.556 l 15.8889,6.9e-4 z" />
      <path
         style="fill:#56caff;fill-opacity:1;stroke:none;stroke-linecap:butt;stroke-linejoin:round"
         id="path52"
         d="m 0,-166.2257 c -18.6107,0 -32.5452,17.2166 -38.029,54.6239 L 2.8192,-92.606701 38.029,-111.6018 C 32.54523,-149.009 18.6107,-166.2257 0,-166.2257 Z" />
      <path
         style="fill:#95deff;fill-opacity:1;stroke:none;stroke-linecap:butt;stroke-linejoin:round"
         id="path54"
         d="m -38.029,-111.602 c -1.66383,11.3498 -2.55892,24.5348 -2.55892,39.6912 0,9.0084 0.64896,18.5875 1.76636,28.4401 l 40.284,17.6383 37.359,-17.6383 c 1.11739,-9.85263 1.76637,-19.4317 1.76637,-28.4401 0,-15.1565 -0.89509,-28.3414 -2.55892,-39.6912 z" />
      <path
         style="fill:#56caff;fill-opacity:1;stroke:none;stroke-linecap:butt;stroke-linejoin:round"
         id="path56"
         d="m -38.821,-43.47 c 2.53826,22.3808 7.54192,46.1753 13.1398,68.1314 L -0.3458,35.5158 25.6824,24.6614 C 31.28026,2.7054 36.2839,-21.0891 38.8222,-43.47 Z" />
      <path
         style="fill:#95deff;fill-opacity:1;stroke:none;stroke-linecap:butt;stroke-linejoin:round"
         id="path58"
         d="m -25.681001,24.661 c 5.87888,23.0582 12.4026,44.0784 17.4072,59.1617 h 16.5491 c 5.00459,-15.0834 11.5283,-36.1035 17.4072,-59.1617 z" />
      <path
         style="fill:none;stroke:#383838;stroke-width:6;stroke-linecap:butt;stroke-linejoin:round;stroke-opacity:1"
         id="path60"
         d="m 0,-166.2255 c -24.2574,0 -40.5881,29.2051 -40.5881,94.3152 0,50.9619 20.4449,119.964 32.3128,155.732 H 8.2753 c 11.8678,-35.7685 32.3128,-104.77 32.3128,-155.732 0,-65.11 -16.3307,-94.3152 -40.588,-94.3152 z" />
    </g>
  </svg>
</svg>
